<svg width="160" height="60" viewBox="0 0 160 60" fill="none" xmlns="http://www.w3.org/2000/svg">
<path d="M71.5857 48.2949C72.3866 48.2946 73.1183 48.4668 73.7809 48.8105C74.4437 49.1549 74.9887 49.6294 75.4167 50.2334L74.387 51.0321C74.0856 50.5849 73.6924 50.2372 73.2079 49.9898C72.7227 49.7424 72.1822 49.618 71.5862 49.6182C70.9114 49.6185 70.3093 49.7715 69.7798 50.0773C69.25 50.3831 68.8392 50.8064 68.547 51.3471C68.2553 51.8886 68.1096 52.5005 68.1098 53.1837C68.1101 53.8669 68.2564 54.4789 68.5484 55.0195C68.841 55.5607 69.2522 55.9836 69.7822 56.2882C70.312 56.5936 70.9143 56.746 71.589 56.7459C72.1849 56.7455 72.7239 56.6215 73.2058 56.373C73.6874 56.1252 74.0785 55.7802 74.3797 55.339L75.419 56.1277C74.9914 56.7319 74.4467 57.207 73.7842 57.552C73.1221 57.8969 72.3904 58.0688 71.5895 58.0691C70.6739 58.0695 69.8488 57.856 69.1142 57.4269C68.379 56.9978 67.8051 56.412 67.3927 55.6686C66.9795 54.9252 66.7731 54.0972 66.7727 53.1843C66.7723 52.2716 66.9782 51.4432 67.3907 50.6996C67.8026 49.9559 68.3761 49.3688 69.1108 48.9399C69.8452 48.5103 70.6701 48.2953 71.5857 48.2949Z" fill="white"/>
<path d="M80.9301 56.7421C81.6107 56.7419 82.2157 56.5887 82.7455 56.2829C83.2754 55.978 83.6876 55.5548 83.9825 55.0133C84.2774 54.4726 84.425 53.8606 84.4248 53.1772C84.4246 52.494 84.2764 51.8823 83.9811 51.341C83.6858 50.8004 83.2732 50.3775 82.743 50.0721C82.213 49.7668 81.608 49.6142 80.9274 49.6146C80.2467 49.6148 79.6414 49.7678 79.1119 50.0736C78.5821 50.3794 78.1696 50.8026 77.8747 51.3433C77.58 51.885 77.4327 52.4969 77.433 53.1801C77.4332 53.8633 77.5809 54.4751 77.8762 55.0157C78.1714 55.5569 78.5843 55.9798 79.1143 56.2844C79.6441 56.5898 80.2494 56.7424 80.9301 56.7421ZM80.9268 48.2911C81.842 48.2908 82.6671 48.5052 83.4021 48.9343C84.1368 49.3626 84.7123 49.9507 85.1284 50.6964C85.5443 51.443 85.7521 52.2694 85.7525 53.1769C85.7528 54.0834 85.5455 54.91 85.1302 55.6568C84.7148 56.4036 84.1398 56.9915 83.4056 57.4211C82.6708 57.8509 81.8458 58.065 80.9306 58.0653C80.015 58.0657 79.1887 57.8522 78.451 57.4231C77.7127 56.994 77.1361 56.4067 76.7201 55.6601C76.3042 54.9136 76.0963 54.0872 76.0959 53.1807C76.0956 52.2733 76.3029 51.4467 76.7183 50.6998C77.1336 49.9537 77.7097 49.3652 78.4476 48.9363C79.1851 48.5065 80.0113 48.2915 80.9268 48.2911Z" fill="white"/>
<path d="M88.6006 57.8542L87.2727 57.8547L87.267 43.7007L88.5948 43.7002L88.6006 57.8542Z" fill="white"/>
<path d="M94.9511 56.7365C95.6317 56.7363 96.2367 56.5831 96.7665 56.2773C97.2964 55.9724 97.7086 55.5491 98.0035 55.0077C98.2984 54.467 98.4462 53.8548 98.4458 53.1716C98.4456 52.4884 98.2973 51.8766 98.0021 51.3354C97.7068 50.7948 97.2942 50.3719 96.764 50.0665C96.234 49.7612 95.629 49.6086 94.9484 49.609C94.2677 49.6091 93.6624 49.7621 93.1329 50.0679C92.6031 50.3737 92.1906 50.797 91.8959 51.3377C91.601 51.8792 91.4536 52.4913 91.454 53.1745C91.4542 53.8577 91.6019 54.4695 91.8973 55.0101C92.1924 55.5513 92.6053 55.9742 93.1353 56.2788C93.6651 56.5842 94.2704 56.7366 94.9511 56.7365ZM94.9478 48.2855C95.863 48.2852 96.6881 48.4996 97.4231 48.9287C98.1578 49.357 98.7333 49.945 99.1494 50.6908C99.5652 51.4374 99.7731 52.2638 99.7735 53.1713C99.7738 54.0776 99.5665 54.9044 99.1512 55.6512C98.7358 56.398 98.1608 56.9859 97.4266 57.4155C96.6918 57.8453 95.8668 58.0594 94.9516 58.0597C94.036 58.0601 93.2097 57.8466 92.472 57.4175C91.7337 56.9884 91.1571 56.4011 90.7411 55.6545C90.3252 54.908 90.1173 54.0814 90.1169 53.1751C90.1166 52.2676 90.3239 51.4411 90.7392 50.6942C91.1546 49.9481 91.7307 49.3595 92.4685 48.9307C93.2061 48.5009 94.0322 48.2859 94.9478 48.2855Z" fill="white"/>
<path d="M114.607 51.8412L114.609 57.8436L113.281 57.8441L113.279 51.9592C113.279 51.5182 113.182 51.1178 112.989 50.7583C112.796 50.3987 112.524 50.1159 112.171 49.9109C111.819 49.7057 111.411 49.6024 110.947 49.6026C110.496 49.6027 110.092 49.7079 109.737 49.9165C109.382 50.1252 109.106 50.4079 108.911 50.7647C108.715 51.1212 108.618 51.52 108.618 51.961L108.62 57.8459L107.283 57.8465L107.281 51.9616C107.28 51.5267 107.184 51.1296 106.991 50.7701C106.798 50.4105 106.524 50.1262 106.169 49.918C105.813 49.7097 105.407 49.6047 104.949 49.6049C104.491 49.6051 104.086 49.7104 103.734 49.9189C103.382 50.1275 103.108 50.4119 102.913 50.7717C102.717 51.1314 102.619 51.5287 102.62 51.9634L102.622 57.8483L101.294 57.8488L101.29 48.4916L102.582 48.491L102.582 49.3709C102.877 49.0259 103.242 48.7578 103.675 48.5673C104.109 48.3768 104.584 48.2818 105.102 48.2817C105.729 48.2813 106.295 48.4143 106.8 48.6797C107.306 48.946 107.713 49.3109 108.021 49.7762C108.351 49.3105 108.776 48.9453 109.294 48.6788C109.811 48.4129 110.387 48.2795 111.019 48.2793C111.705 48.2789 112.321 48.4346 112.867 48.7455C113.412 49.0564 113.838 49.484 114.145 50.0276C114.453 50.572 114.606 51.176 114.607 51.8412Z" fill="white"/>
<path d="M124.788 53.1615C124.788 52.4783 124.643 51.8663 124.354 51.325C124.065 50.7847 123.659 50.3616 123.139 50.0563C122.618 49.7509 122.026 49.5984 121.364 49.5986C120.701 49.599 120.112 49.752 119.598 50.0578C119.083 50.3634 118.681 50.7867 118.392 51.3274C118.103 51.869 117.959 52.481 117.959 53.1642C117.959 53.8474 118.104 54.4592 118.394 54.9997C118.683 55.541 119.085 55.9639 119.6 56.2686C120.115 56.5739 120.703 56.7265 121.366 56.7261C122.028 56.7259 122.62 56.5729 123.141 56.2671C123.662 55.9621 124.067 55.539 124.356 54.9974C124.644 54.4566 124.789 53.8447 124.788 53.1615ZM126.116 53.1609C126.116 54.0674 125.915 54.8942 125.512 55.641C125.109 56.3879 124.55 56.9757 123.837 57.4053C123.123 57.8349 122.318 58.0492 121.421 58.0496C120.746 58.0497 120.118 57.9216 119.537 57.6656C118.956 57.4088 118.454 57.0479 118.033 56.5826L118.033 57.8424L116.705 57.8429L116.7 43.6889L118.028 43.6884L118.03 49.7543C118.451 49.2888 118.953 48.9258 119.534 48.6655C120.114 48.4059 120.742 48.2755 121.417 48.2754C122.314 48.275 123.12 48.4893 123.834 48.9183C124.547 49.3467 125.106 49.9349 125.51 50.6806C125.914 51.4271 126.116 52.2537 126.116 53.1609Z" fill="white"/>
<path d="M128.964 57.838L127.636 57.8385L127.632 48.481L128.961 48.4805L128.964 57.838ZM128.29 44.0376C128.597 44.0374 128.844 44.1329 129.031 44.3233C129.218 44.5136 129.311 44.7596 129.311 45.0619C129.311 45.3645 129.218 45.6105 129.032 45.801C128.845 45.9915 128.598 46.087 128.291 46.0872C127.984 46.0874 127.737 45.9919 127.55 45.8015C127.364 45.6112 127.27 45.3652 127.27 45.0629C127.27 44.7603 127.363 44.5143 127.55 44.3238C127.736 44.1333 127.983 44.0378 128.29 44.0376Z" fill="white"/>
<path d="M136.479 54.5076L136.479 53.2657L133.923 53.5472C133.26 53.6203 132.759 53.8016 132.419 54.0923C132.078 54.3823 131.909 54.7632 131.909 55.2349C131.909 55.531 131.984 55.7999 132.135 56.0419C132.285 56.2831 132.507 56.4758 132.799 56.6174C133.091 56.7591 133.436 56.8304 133.833 56.8302C134.345 56.83 134.803 56.724 135.206 56.5123C135.61 56.3005 135.923 56.0161 136.146 55.6596C136.368 55.3028 136.48 54.9189 136.479 54.5076ZM137.788 51.5964L137.79 57.8346L136.481 57.8352L136.48 56.8471C136.167 57.2217 135.776 57.515 135.306 57.7268C134.836 57.9385 134.31 58.0443 133.725 58.0447C133.093 58.0449 132.539 57.926 132.063 57.6872C131.588 57.4492 131.22 57.1164 130.961 56.6903C130.702 56.2641 130.572 55.7792 130.572 55.2354C130.572 54.4253 130.847 53.7789 131.397 53.2944C131.948 52.8107 132.736 52.5111 133.76 52.3964L136.478 52.096L136.478 51.6329C136.478 51.2466 136.382 50.8973 136.189 50.5862C135.996 50.2746 135.729 50.0286 135.389 49.8477C135.049 49.6661 134.671 49.5755 134.255 49.5755C133.876 49.5756 133.529 49.6503 133.216 49.7984C132.903 49.9467 132.648 50.1521 132.449 50.4155C132.25 50.6779 132.127 50.9788 132.079 51.3173L130.778 51.3178C130.82 50.7381 130.994 50.2162 131.301 49.7538C131.608 49.2914 132.016 48.9285 132.525 48.6649C133.034 48.4023 133.61 48.2705 134.255 48.2701C134.935 48.27 135.543 48.4132 136.08 48.7005C136.616 48.9871 137.034 49.384 137.336 49.8916C137.637 50.3993 137.788 50.968 137.788 51.5964Z" fill="white"/>
<path d="M147.654 52.0366L147.656 57.8307L146.319 57.8313L146.317 52.1641C146.316 51.687 146.209 51.2514 145.995 50.8589C145.782 50.4656 145.479 50.1563 145.087 49.9292C144.696 49.703 144.244 49.5895 143.732 49.5897C143.238 49.5899 142.8 49.7037 142.418 49.9303C142.036 50.1576 141.739 50.4672 141.528 50.8607C141.318 51.2532 141.213 51.689 141.213 52.1661L141.215 57.8332L139.887 57.8338L139.883 48.4763L141.212 48.4758L141.212 49.4278C141.537 49.0593 141.93 48.7732 142.39 48.5709C142.851 48.3677 143.358 48.2666 143.912 48.2662C144.623 48.2661 145.263 48.4288 145.832 48.7553C146.401 49.081 146.847 49.5313 147.169 50.1054C147.492 50.6796 147.653 51.3237 147.654 52.0366Z" fill="white"/>
<path d="M155.117 54.5002L155.116 53.2583L152.56 53.5398C151.898 53.6128 151.396 53.7941 151.056 54.0849C150.716 54.3749 150.546 54.7557 150.546 55.2274C150.546 55.5236 150.622 55.7924 150.772 56.0344C150.923 56.2757 151.144 56.4684 151.436 56.6099C151.728 56.7517 152.074 56.8229 152.471 56.8228C152.983 56.8226 153.44 56.7165 153.844 56.5048C154.247 56.2931 154.56 56.0087 154.783 55.6521C155.006 55.2954 155.117 54.9115 155.117 54.5002ZM156.426 51.589L156.428 57.8272L155.118 57.8277L155.118 56.8396C154.804 57.2143 154.414 57.5076 153.944 57.7193C153.474 57.931 152.947 58.0369 152.363 58.0373C151.731 58.0374 151.176 57.9185 150.701 57.6798C150.225 57.4418 149.857 57.109 149.598 56.6828C149.339 56.2567 149.21 55.7718 149.209 55.228C149.209 54.4179 149.485 53.7713 150.035 53.2869C150.586 52.8033 151.373 52.5037 152.397 52.3889L155.116 52.0886L155.116 51.6254C155.116 51.2391 155.019 50.8898 154.826 50.5788C154.633 50.267 154.366 50.0212 154.026 49.8403C153.686 49.6586 153.308 49.5678 152.893 49.568C152.513 49.5682 152.167 49.6429 151.854 49.791C151.541 49.9393 151.285 50.1446 151.086 50.408C150.888 50.6705 150.764 50.9714 150.716 51.3098L149.416 51.3104C149.457 50.7307 149.632 50.2088 149.939 49.7464C150.246 49.284 150.654 48.9211 151.163 48.6575C151.671 48.3948 152.248 48.2631 152.892 48.2627C153.573 48.2625 154.181 48.4057 154.717 48.693C155.253 48.9796 155.672 49.3766 155.973 49.8841C156.274 50.3917 156.425 50.9605 156.426 51.589Z" fill="white"/>
<path d="M129.131 15.3785L129.134 21.2513L125.404 21.2529C124.262 21.2533 123.245 21.523 122.351 22.0619C121.457 22.6007 120.759 23.3364 120.257 24.2681C119.754 25.2004 119.504 26.2304 119.504 27.3588L119.51 41.8485L113.531 41.8507L113.521 15.3847L119.397 15.3823L119.398 18.3573C120.114 17.3825 121.054 16.6429 122.221 16.1379C123.387 15.6332 124.661 15.3804 126.04 15.3798L129.131 15.3785Z" fill="white"/>
<path d="M136.063 21.0435L130.672 21.0457L130.67 15.3779L136.061 15.3757L136.058 9.42613C136.058 7.90456 136.372 6.56644 137.002 5.4123C137.632 4.2578 138.525 3.36867 139.684 2.74402C140.842 2.11973 142.196 1.80686 143.746 1.80632L148.958 1.80432L148.96 7.47187L144.693 7.47369C143.876 7.47387 143.224 7.71858 142.739 8.20764C142.254 8.69671 142.011 9.3616 142.012 10.2018L142.014 15.3734L148.963 15.3707L148.965 21.0384L142.016 21.0411L142.024 41.8395L136.071 41.8419L136.063 21.0435Z" fill="white"/>
<path d="M154.07 6.55591C154.819 6.55555 155.492 6.73083 156.088 7.08086C156.684 7.43126 157.153 7.90546 157.494 8.50364C157.835 9.10219 158.006 9.7689 158.006 10.5038C158.006 11.2392 157.836 11.9059 157.496 12.5044C157.155 13.1032 156.687 13.5732 156.091 13.9154C155.495 14.2578 154.822 14.4288 154.073 14.4291C153.323 14.4293 152.65 14.2589 152.054 13.9169C151.458 13.5754 150.989 13.1055 150.649 12.507C150.307 11.909 150.137 11.2423 150.137 10.5068C150.136 9.77198 150.306 9.10509 150.647 8.50636C150.987 7.90799 151.455 7.43325 152.051 7.08249C152.647 6.73192 153.32 6.55627 154.07 6.55591Z" fill="white"/>
<path d="M151.084 15.3697L157.062 15.3673L157.073 41.8335L151.094 41.8358L151.084 15.3697Z" fill="white"/>
<path d="M85.2422 34.4777C84.7746 34.9318 84.2536 35.3219 83.6761 35.6438C82.5861 36.2513 81.3426 36.5551 79.9461 36.5556C78.4644 36.5561 77.1396 36.215 75.973 35.5314C74.8059 34.8482 73.8941 33.9036 73.2382 32.6986C72.5818 31.4935 72.2535 30.1389 72.2529 28.6342C72.2522 27.13 72.5796 25.7746 73.2349 24.569C73.8899 23.3634 74.801 22.4186 75.9676 21.7342C77.1336 21.05 78.4582 20.7074 79.94 20.7067C81.3364 20.7062 82.5845 21.0094 83.6833 21.6156C84.1821 21.8911 84.6376 22.2174 85.0538 22.5897C85.8522 20.7384 87.0247 19.0887 88.4763 17.7352C87.8439 17.2222 87.1573 16.7667 86.4151 16.37C84.4642 15.3283 82.3049 14.8073 79.9376 14.8082C77.3485 14.8093 75.0155 15.4173 72.9381 16.6318C70.8602 17.8468 69.2346 19.51 68.06 21.6218C66.8857 23.7341 66.299 26.0719 66.3001 28.6365C66.301 31.2011 66.8895 33.5389 68.0656 35.65C69.2418 37.761 70.8687 39.4231 72.9475 40.636C75.0258 41.8494 77.3594 42.455 79.9484 42.4541C82.3158 42.453 84.4745 41.9306 86.4247 40.8872C87.3032 40.417 88.1005 39.8607 88.825 39.2273C87.326 37.9175 86.0992 36.3031 85.2422 34.4777Z" fill="white"/>
<path d="M98.9831 34.789C102.652 34.7875 105.279 31.9501 105.278 28.3162C105.276 24.6832 102.647 21.8471 98.978 21.8485C95.3087 21.85 92.682 24.6881 92.6835 28.3213C92.6847 31.9552 95.3137 34.7904 98.9831 34.789ZM98.9755 15.2295C106.512 15.2266 112.018 20.9973 112.021 28.3137C112.024 35.63 106.522 41.4058 98.9856 41.4087C91.449 41.4118 85.9431 35.6402 85.9402 28.324C85.9373 21.0076 91.4387 15.2326 98.9755 15.2295Z" fill="white"/>
<path d="M48.1997 38.2662C48.07 38.1979 47.9134 38.2339 47.8273 38.3527C46.9336 39.5862 45.3775 42.0368 43.3433 43.9405C32.8261 53.6086 18.4864 54.656 8.70296 44.8354C4.91714 41.0353 2.40987 33.9565 2.40987 28.6925C2.40987 26.0895 2.70676 23.8004 3.16599 21.8055C2.79958 24.004 2.74287 26.4089 3.1091 29.0434C3.80039 34.0162 5.55642 38.8606 9.4022 42.7298C18.7651 52.119 31.9163 51.7055 42.4604 41.8164C43.7106 40.6437 46.362 36.8713 47.0006 35.9409C47.1174 35.7705 47.3347 35.7051 47.5268 35.7803L50.2981 37.2091C50.5121 37.3069 50.7542 37.1451 50.7465 36.9091C50.7465 36.9091 51.6698 30.7541 49.9653 21.9377C45.8231 25.8458 39.3632 31.3124 39.3632 31.3124C39.2075 31.4817 39.2724 31.7552 39.4873 31.8362L41.9987 33.0473C42.1502 33.1044 42.2129 33.2839 42.1262 33.4211C41.3556 34.6412 37.0416 40.8823 29.6796 42.7298C23.1517 44.3679 16.6677 43.4962 10.8007 38.1678C3.45872 31.5 2.36635 18.3371 11.4999 9.74228C17.0936 4.47824 23.037 2.72355 28.6847 2.43678C38.7855 1.92379 48.4863 9.75425 51.22 19.0736C54.6733 30.846 52.4037 39.9217 52.4037 39.9217C52.4182 40.1762 52.1505 40.349 51.9259 40.2306L48.1997 38.2662ZM50.6119 8.90011C41.8997 0.154972 30.1513 -1.20672 19.1913 3.42543C15.811 4.85401 11.1662 7.55872 7.69258 11.8553C-2.97667 23.5336 1.8515 43.0673 9.2124 50.456C20.6472 61.9249 39.1774 61.9249 50.6119 50.456C62.0377 38.9782 62.0377 20.3779 50.6119 8.90011Z" fill="white"/>
</svg>