<?xml version="1.0" encoding="UTF-8"?>
<svg id="Capa_1" xmlns="http://www.w3.org/2000/svg" viewBox="0 0 98.4 32.32">
  <defs>
    <style>
      .cls-1 {
        fill: #003;
      }

      .cls-2 {
        fill: #ffbc00;
      }

      .cls-3 {
        fill: #ff2845;
      }

      .cls-4 {
        fill: #00d3d8;
      }
    </style>
  </defs>
  <path class="cls-1" d="M43.88,20.33c0-3.41-2.25-5.54-5.36-5.54s-5.36,2.13-5.36,5.54,2.25,5.54,5.36,5.54,5.36-2.13,5.36-5.54M50.64,8.98v22.7h-6.75v-2.13c-1.49,1.73-3.69,2.77-6.71,2.77-5.9,0-10.76-5.22-10.76-11.99s4.86-11.99,10.76-11.99c3.02,0,5.22,1.04,6.71,2.77v-2.13h6.75Z"/>
  <path class="cls-3" d="M16.16,27.76c0-2.52,2.02-4.56,4.52-4.56s4.52,2.04,4.52,4.56-2.02,4.56-4.52,4.56-4.52-2.04-4.52-4.56"/>
  <path class="cls-2" d="M89.35,27.76c0-2.52,2.02-4.56,4.52-4.56s4.52,2.04,4.52,4.56-2.02,4.56-4.52,4.56-4.52-2.04-4.52-4.56"/>
  <rect class="cls-1" x="54.46" width="6.75" height="31.68"/>
  <rect class="cls-4" x="90.41" width="6.75" height="20.78"/>
  <g>
    <path class="cls-1" d="M80.37,17.97c-.72-2.63-2.75-3.59-4.77-3.59-2.57,0-4.28,1.27-4.91,3.59h9.68ZM76.23,26.23c1.85,0,3.42-.73,4.32-1.73l5.4,3.13c-2.21,3.09-5.54,4.68-9.82,4.68-7.7,0-12.47-5.22-12.47-11.99s4.86-11.99,11.98-11.99c6.57,0,11.44,5.13,11.44,11.99,0,.95-.09,1.86-.27,2.72h-15.99c.86,2.36,2.93,3.18,5.4,3.18"/>
    <path class="cls-1" d="M13.96,27.76c0-.82.14-1.6.41-2.33-.68.28-1.43.44-2.26.44-3.11,0-5.36-2.13-5.36-5.54s2.25-5.54,5.36-5.54,5.36,2.13,5.36,5.54c0,.57-.07,1.09-.19,1.58,1-.59,2.16-.93,3.4-.93,1.3,0,2.52.37,3.54,1.02V0h-6.75v11.11c-1.49-1.73-3.69-2.77-6.71-2.77C4.86,8.34,0,13.56,0,20.33s4.86,11.98,10.76,11.98c1.66,0,3.08-.32,4.27-.89-.67-1.06-1.06-2.31-1.06-3.66"/>
  </g>
</svg>