<svg id="Capa_2" data-name="Capa 2" xmlns="http://www.w3.org/2000/svg" viewBox="0 0 379.84 97.31">
  <g id="Capa_2-2" data-name="Capa 2">
    <g id="uuid-94a443fd-6a41-4f61-99d3-2557649f03c8" data-name="Capa 2-2">
      <g>
        <rect width="26.12" height="97.31" style="fill: #5723f5;"/>
        <path d="M91.2,23.91c-4.55-7.41-10.72-13.25-18.52-17.52C64.87,2.13,56.28,0,46.9,0h-10.5v97.31h10.5c9.38,0,17.97-2.18,25.77-6.54,7.8-4.35,13.98-10.26,18.52-17.72,4.54-7.46,6.82-15.68,6.82-24.67s-2.28-17.05-6.82-24.47h0Z" style="fill: #5723f5;"/>
        <g>
          <path d="M114.1,22.54h19.16c4.91,0,9.4,1.12,13.49,3.35,4.08,2.23,7.31,5.29,9.69,9.16,2.38,3.88,3.57,8.15,3.57,12.8s-1.19,9.01-3.57,12.91c-2.38,3.9-5.61,6.99-9.69,9.27-4.08,2.28-8.58,3.42-13.49,3.42h-19.16V22.54h0ZM139.83,59.64c2.03-1.16,3.62-2.78,4.77-4.84,1.15-2.06,1.73-4.35,1.73-6.87s-.58-4.79-1.73-6.8c-1.15-2.01-2.74-3.6-4.77-4.77s-4.25-1.75-6.65-1.75h-5.71v26.77h5.71c2.4,0,4.62-.58,6.65-1.75h0Z" style="fill: #5723f5;"/>
          <path d="M194.42,70.19c-2.91,2.96-6.91,4.44-12.02,4.44-3.76,0-7.17-.92-10.26-2.76-3.08-1.84-5.5-4.39-7.25-7.64-1.75-3.25-2.63-6.89-2.63-10.91s.88-7.66,2.63-10.91c1.75-3.25,4.17-5.81,7.25-7.67,3.08-1.87,6.5-2.8,10.26-2.8,5.16,0,9.17,1.5,12.02,4.51v-3.35h12.4v40.37h-12.4v-3.27h0ZM191.23,59.97c1.83-1.77,2.74-3.99,2.74-6.65s-.9-4.89-2.7-6.65-4.06-2.66-6.76-2.66-4.96.89-6.76,2.66-2.7,3.99-2.7,6.65.91,4.89,2.74,6.65c1.83,1.77,4.07,2.66,6.72,2.66s4.9-.88,6.72-2.66Z" style="fill: #5723f5;"/>
          <path d="M212.22,33.09h12.32v3.35c2.86-3.01,6.89-4.51,12.1-4.51,3.76,0,7.17.92,10.26,2.76,3.08,1.84,5.5,4.39,7.25,7.64,1.75,3.25,2.63,6.89,2.63,10.91s-.88,7.66-2.63,10.91c-1.75,3.25-4.17,5.81-7.25,7.67-3.08,1.87-6.5,2.8-10.26,2.8-5.21,0-9.24-1.53-12.1-4.58v15.93h-12.32v-52.88ZM227.81,46.58c-1.83,1.77-2.74,3.99-2.74,6.65s.9,4.89,2.7,6.65,4.06,2.66,6.76,2.66,4.96-.88,6.76-2.66c1.8-1.77,2.7-3.99,2.7-6.65s-.91-4.89-2.74-6.65c-1.83-1.77-4.07-2.66-6.72-2.66s-4.9.89-6.72,2.66Z" style="fill: #5723f5;"/>
          <path d="M260.31,33.09h12.32v3.35c2.86-3.01,6.89-4.51,12.1-4.51,3.76,0,7.17.92,10.26,2.76,3.08,1.84,5.5,4.39,7.25,7.64,1.75,3.25,2.63,6.89,2.63,10.91s-.88,7.66-2.63,10.91c-1.75,3.25-4.17,5.81-7.25,7.67s-6.5,2.8-10.26,2.8c-5.21,0-9.24-1.53-12.1-4.58v15.93h-12.32v-52.88ZM275.9,46.58c-1.83,1.77-2.74,3.99-2.74,6.65s.9,4.89,2.7,6.65c1.8,1.77,4.06,2.66,6.76,2.66s4.96-.88,6.76-2.66c1.8-1.77,2.7-3.99,2.7-6.65s-.91-4.89-2.74-6.65c-1.83-1.77-4.07-2.66-6.72-2.66s-4.9.89-6.72,2.66Z" style="fill: #5723f5;"/>
          <path d="M317.9,71.79c-3.38-1.89-6.06-4.46-8.04-7.71-1.98-3.25-2.97-6.84-2.97-10.77s.99-7.53,2.97-10.8c1.98-3.27,4.66-5.85,8.04-7.75,3.38-1.89,7.1-2.84,11.16-2.84s7.65.95,10.93,2.84c3.28,1.89,5.87,4.47,7.78,7.75,1.9,3.27,2.86,6.9,2.86,10.87,0,1.02-.12,2.26-.38,3.71h-31.11c.7,2.18,1.95,3.93,3.76,5.24,1.8,1.31,3.86,1.96,6.16,1.96,2,0,3.72-.35,5.15-1.05,1.43-.7,2.49-1.73,3.19-3.09h12.4c-1.1,4.41-3.56,7.93-7.36,10.55s-8.27,3.93-13.37,3.93c-4.06,0-7.78-.95-11.16-2.84h0ZM338.6,49.38c-.7-2.08-1.92-3.75-3.64-4.98-1.73-1.24-3.69-1.86-5.9-1.86s-4.33.62-6.09,1.86c-1.75,1.24-2.98,2.92-3.68,5.05l19.31-.07h0Z" style="fill: #5723f5;"/>
          <path d="M354.07,33.09h12.7v4.51c2.3-3.73,5.53-5.6,9.69-5.6,1.05,0,2.18.15,3.38.44v11.93h-4.06c-2.75,0-4.91.74-6.46,2.22-1.55,1.48-2.33,3.7-2.33,6.65v20.22h-12.92v-40.37h0Z" style="fill: #5723f5;"/>
        </g>
      </g>
    </g>
  </g>
</svg>