<svg xmlns="http://www.w3.org/2000/svg" xmlns:xlink="http://www.w3.org/1999/xlink" id="Capa_2_1_" x="0px" y="0px" viewBox="0 0 726 134.6" style="enable-background:new 0 0 726 134.6;" xml:space="preserve"><style type="text/css">	.st0{fill-rule:evenodd;clip-rule:evenodd;fill:#EE2737;}	.st1{fill:#EE2737;}</style><g id="Capa_1-2">	<g>		<g>			<polygon class="st0" points="343.5,0 343.5,134.5 362.7,134.5 362.7,19.2 439.6,19.2 439.6,0    "></polygon>			<rect x="381.9" y="38.4" class="st1" width="57.7" height="19.2"></rect>			<polygon class="st0" points="381.9,82.2 381.9,96.1 381.9,134.6 401.1,134.6 401.1,96.1 439.6,96.1 439.6,76.9 381.9,76.9    "></polygon>			<rect x="305" class="st1" width="19.2" height="134.6"></rect>			<polygon class="st0" points="285.8,0 285.8,134.6 266.6,134.6 266.6,134.6 244.8,134.5 208.9,99.1 208.9,134.5 189.7,134.5     189.7,57.7 193.2,57.7 264.7,128.4 266.6,128.4 266.6,0    "></polygon>			<polygon class="st0" points="247.4,0 247.4,76.9 244,76.9 172.4,6.2 170.5,6.2 170.5,134.6 151.3,134.6 151.3,6.2 149.2,6.2     26.1,134.5 0,134.5 129,0 139.7,0 139.7,0 179.7,0 179.7,0 192.3,0 228.2,35.5 228.2,0    "></polygon>			<polygon class="st0" points="132,57.7 132,134.5 112.8,134.5 112.8,99.9 79.2,134.5 53.1,134.6 128.7,57.7    "></polygon>		</g>		<g>			<path class="st1" d="M480.1,41.5c2.1-2.1,4.6-3.1,7.7-3.1s5.7,0.9,7.4,2.7s2.7,4,2.9,6.7l-4.9,0.2c-0.2-1.3-0.7-2.5-1.5-3.5    s-2.1-1.5-3.9-1.5c-3.4,0-5.5,2.6-5.5,6.5s2.1,6.5,5.5,6.5c1.8,0,3-0.5,3.9-1.5c0.8-1,1.4-2.2,1.5-3.5l4.9,0.2    c-0.2,2.7-1.1,4.9-2.9,6.7s-4.2,2.7-7.4,2.7s-5.6-1-7.7-3.1s-3.1-4.7-3.1-8S478.1,43.6,480.1,41.5z"></path>			<path class="st1" d="M519.6,60.1h-16.4V38.8h16.1v4.2h-11.1v4.2h8.6v4.2h-8.6v4.5h11.4V60.1L519.6,60.1z"></path>			<path class="st1" d="M539,51.6V38.8h4.7v21.2h-4.1l-9.8-13.5v13.5H525V38.8h4.9L539,51.6L539,51.6z"></path>			<path class="st1" d="M556.2,60.1v-17h-7.4v-4.2h20v4.2h-7.5v17H556.2L556.2,60.1z"></path>			<path class="st1" d="M587.6,60.1c-0.4-0.6-0.7-2-0.9-4.2c-0.2-2.4-1.2-3.2-3.4-3.2h-4.3v7.4h-5V38.8h10.2c5.5,0,8.2,2.6,8.2,6.6    c0,3.1-2,5.1-4.6,5.4c2.3,0.4,3.5,1.8,3.8,4.2c0.2,1.5,0.3,2.7,0.4,3.3c0.1,0.7,0.3,1.2,0.7,1.6L587.6,60.1L587.6,60.1z     M583.5,48.8c2.7,0,4-0.8,4-2.9c0-1.9-1.3-2.9-4-2.9h-4.4v5.8H583.5z"></path>			<path class="st1" d="M615.7,57.4c-2.1,2.1-4.7,3.1-7.8,3.1s-5.7-1-7.8-3.1s-3.1-4.7-3.1-8s1-5.9,3.1-8c2.1-2.1,4.7-3.1,7.8-3.1    s5.7,1,7.8,3.1c2.1,2.1,3.2,4.7,3.2,8S617.8,55.4,615.7,57.4z M607.9,42.9c-3.4,0-5.6,2.6-5.6,6.5s2.2,6.5,5.6,6.5    s5.7-2.6,5.7-6.5S611.4,42.9,607.9,42.9z"></path>			<path class="st1" d="M632.8,38.8h8.2c3.5,0,6.2,0.9,8.2,2.8c2.1,1.9,3.1,4.5,3.1,7.8s-1,5.9-3.1,7.8c-2,1.9-4.8,2.8-8.2,2.8h-8.2    C632.8,60.1,632.8,38.9,632.8,38.8z M640.7,56c4,0,6.3-2.4,6.3-6.6s-2.3-6.5-6.3-6.5h-2.8V56H640.7z"></path>			<path class="st1" d="M673.8,60.1h-16.4V38.8h16.1v4.2h-11.1v4.2h8.6v4.2h-8.6v4.5h11.4V60.1L673.8,60.1z"></path>			<path class="st1" d="M483.1,97.1H478V75.9h9c5.5,0,8.7,2.6,8.7,7.2s-3.2,7.2-8.7,7.2h-3.9V97.1z M486.7,86.1c2.8,0,3.9-1.1,3.9-3    s-1.1-3.1-3.9-3.1h-3.7v6.1H486.7z"></path>			<path class="st1" d="M516.8,97.1h-16.4V75.9h16.1v4.2h-11.1v4.2h8.6v4.2h-8.6v4.5h11.4V97.1L516.8,97.1z"></path>			<path class="st1" d="M536.2,88.6V75.9h4.7v21.2h-4.1l-9.8-13.6v13.6h-4.7V75.9h4.9L536.2,88.6L536.2,88.6z"></path>			<path class="st1" d="M550.6,89.4c0.2,2.9,2.4,4.1,5,4.1c2.3,0,3.7-0.9,3.7-2.3s-1.2-1.8-3.1-2.1l-4-0.7c-3.4-0.6-5.8-2.5-5.8-6.1    c0-4.2,3.3-6.8,8.4-6.8c5.8,0,8.9,2.9,9,7.6l-4.7,0.1c-0.1-2.5-1.9-3.7-4.3-3.7c-2.2,0-3.4,0.9-3.4,2.3c0,1.2,1,1.7,2.5,2l4,0.7    c4.3,0.8,6.3,2.9,6.3,6.4c0,2.2-0.8,3.8-2.5,5c-1.7,1.1-3.7,1.7-6.1,1.7c-2.8,0-5.1-0.7-7-2.1c-1.8-1.4-2.7-3.3-2.7-5.9    L550.6,89.4L550.6,89.4z"></path>			<path class="st1" d="M583,92.5h-8.6l-1.8,4.6h-5.1l8.5-21.2h5.7l8.6,21.2h-5.5L583,92.5L583,92.5z M575.9,88.7h5.6l-2.7-7h-0.1    L575.9,88.7L575.9,88.7z"></path>			<path class="st1" d="M603.9,97.1l-4.3-15.7h-0.1v15.7h-4.7V75.9h8l3.7,14.2h0.1l3.6-14.2h7.8v21.2h-5.1V81.4h-0.1l-4.3,15.7    H603.9L603.9,97.1z"></path>			<path class="st1" d="M629.1,75.9v21.2H624V75.9H629.1z"></path>			<path class="st1" d="M651.7,97.1h-16.4V75.9h16.1v4.2h-11.1v4.2h8.6v4.2h-8.6v4.5h11.4V97.1L651.7,97.1z"></path>			<path class="st1" d="M671,88.6V75.9h4.7v21.2h-4.1l-9.8-13.6v13.6h-4.7V75.9h4.9L671,88.6L671,88.6z"></path>			<path class="st1" d="M688.3,97.1v-17H681v-4.2h20v4.2h-7.5v17H688.3L688.3,97.1z"></path>			<path class="st1" d="M722.8,94.5c-2.1,2.1-4.7,3.1-7.8,3.1s-5.7-1-7.8-3.1s-3.1-4.7-3.1-8s1-5.9,3.1-8c2.1-2.1,4.7-3.1,7.8-3.1    s5.7,1,7.8,3.1c2.1,2.1,3.2,4.7,3.2,8S724.9,92.4,722.8,94.5z M715.1,80c-3.4,0-5.6,2.6-5.6,6.5s2.2,6.5,5.6,6.5s5.7-2.6,5.7-6.5    S718.5,80,715.1,80z"></path>			<path class="st1" d="M494.4,134.2H478v-21.2H494v4.2H483v4.2h8.6v4.2H483v4.5h11.4L494.4,134.2L494.4,134.2z"></path>			<path class="st1" d="M501.3,115.6c2.1-2.1,4.6-3.1,7.7-3.1s5.7,0.9,7.4,2.7c1.7,1.8,2.7,4,2.9,6.7l-4.9,0.2    c-0.2-1.3-0.7-2.5-1.5-3.5c-0.8-1-2.1-1.5-3.9-1.5c-3.4,0-5.5,2.6-5.5,6.5s2.1,6.5,5.5,6.5c1.8,0,3-0.5,3.9-1.5    c0.9-1,1.3-2.2,1.5-3.5l4.9,0.2c-0.2,2.7-1.2,4.9-2.9,6.7s-4.2,2.7-7.4,2.7s-5.6-1-7.7-3.1s-3.1-4.7-3.1-8    S499.2,117.6,501.3,115.6L501.3,115.6z"></path>			<path class="st1" d="M542,131.5c-2.1,2.1-4.7,3.1-7.8,3.1s-5.7-1-7.8-3.1c-2.1-2.1-3.1-4.7-3.1-8s1-5.9,3.1-8    c2.1-2.1,4.7-3.1,7.8-3.1s5.7,1,7.8,3.1c2.1,2.1,3.2,4.7,3.2,8S544.2,129.4,542,131.5z M534.3,117c-3.4,0-5.6,2.6-5.6,6.5    s2.2,6.5,5.6,6.5s5.7-2.6,5.7-6.5S537.7,117,534.3,117z"></path>			<path class="st1" d="M564.3,125.7v-12.7h4.7v21.2H565l-9.8-13.6v13.6h-4.7v-21.2h4.9L564.3,125.7z"></path>			<path class="st1" d="M592.9,131.5c-2.1,2.1-4.7,3.1-7.8,3.1s-5.7-1-7.8-3.1c-2.1-2.1-3.1-4.7-3.1-8s1-5.9,3.1-8s4.7-3.1,7.8-3.1    s5.7,1,7.8,3.1c2.1,2.1,3.2,4.7,3.2,8S595,129.4,592.9,131.5z M585.1,117c-3.4,0-5.6,2.6-5.6,6.5s2.2,6.5,5.6,6.5    s5.7-2.6,5.7-6.5S588.6,117,585.1,117z M583.3,111.6l1.8-4.7h5l-3.3,4.7H583.3z"></path>			<path class="st1" d="M610.4,134.2l-4.3-15.7h-0.1v15.7h-4.7v-21.2h8l3.7,14.2h0.1l3.6-14.2h7.8v21.2h-5.1v-15.7h-0.1l-4.3,15.7    H610.4L610.4,134.2z"></path>			<path class="st1" d="M635.6,112.9v21.2h-5.1v-21.2H635.6z"></path>			<path class="st1" d="M643.9,115.6c2.1-2.1,4.6-3.1,7.7-3.1s5.7,0.9,7.4,2.7c1.7,1.8,2.7,4,2.9,6.7l-4.9,0.2    c-0.2-1.3-0.7-2.5-1.5-3.5s-2.1-1.5-3.9-1.5c-3.4,0-5.5,2.6-5.5,6.5s2.1,6.5,5.5,6.5c1.8,0,3-0.5,3.9-1.5s1.3-2.2,1.5-3.5    l4.9,0.2c-0.2,2.7-1.2,4.9-2.9,6.7s-4.2,2.7-7.4,2.7s-5.6-1-7.7-3.1c-2.1-2.1-3.1-4.7-3.1-8S641.9,117.6,643.9,115.6L643.9,115.6    z"></path>			<path class="st1" d="M684.7,131.5c-2.1,2.1-4.7,3.1-7.8,3.1s-5.7-1-7.8-3.1c-2.1-2.1-3.1-4.7-3.1-8s1-5.9,3.1-8s4.7-3.1,7.8-3.1    s5.7,1,7.8,3.1c2.1,2.1,3.2,4.7,3.2,8S686.8,129.4,684.7,131.5z M676.9,117c-3.4,0-5.6,2.6-5.6,6.5s2.2,6.5,5.6,6.5    s5.7-2.6,5.7-6.5S680.4,117,676.9,117z"></path>		</g>	</g></g></svg>