<?xml version="1.0" encoding="UTF-8"?>
<svg id="Capa_2" data-name="Capa 2" xmlns="http://www.w3.org/2000/svg" viewBox="0 0 657.8 63.2">
  <defs>
    <style>
      .cls-1 {
        fill: #21274e;
      }

      .cls-2 {
        fill: #ff1e52;
      }

      .cls-3 {
        fill: #0c2a98;
      }

      .cls-4, .cls-5 {
        fill-rule: evenodd;
      }

      .cls-5 {
        fill: #c8151a;
      }
    </style>
  </defs>
  <g id="Capa_1-2" data-name="Capa 1">
    <g>
      <g>
        <g>
          <path class="cls-5" d="M338.06,7.78c0-4.3,3.48-7.78,7.81-7.78s7.81,3.48,7.81,7.78-3.51,7.81-7.81,7.81-7.81-3.51-7.81-7.81Z"/>
          <g>
            <polygon class="cls-4" points="357.98 18.43 380.56 18.46 380.56 22.64 357.98 22.64 357.98 18.43"/>
            <polygon class="cls-4" points="362.25 48.45 358.04 48.45 358.04 34.47 380.62 34.47 380.62 38.68 362.25 38.68 362.25 48.45"/>
            <rect x="357.98" y="26.48" width="22.58" height="4.21"/>
          </g>
          <g>
            <polygon class="cls-4" points="301.82 18.43 306.06 18.43 306.06 48.48 301.85 48.48 301.82 18.43"/>
            <polygon class="cls-4" points="296.05 48.45 291.84 48.45 291.84 34.66 277.93 48.45 272.35 48.45 296.05 24.8 296.05 48.45"/>
            <polygon class="cls-4" points="296.05 18.37 296.05 18.43 265.97 48.38 260.39 48.38 290.47 18.37 296.05 18.37"/>
          </g>
          <g>
            <polygon class="cls-4" points="334.37 18.37 330.16 18.37 330.16 32.19 316.28 18.37 310.7 18.37 334.37 42.01 334.37 18.37"/>
            <polygon class="cls-4" points="310.7 48.45 314.91 48.45 314.91 34.66 328.79 48.45 334.37 48.45 310.7 24.83 310.7 48.45"/>
          </g>
          <g>
            <polygon class="cls-4" points="339.04 18.43 343.25 18.43 343.28 48.48 339.04 48.48 339.04 18.43"/>
            <polygon class="cls-4" points="348.34 18.43 352.55 18.43 352.58 48.48 348.34 48.48 348.34 18.43"/>
          </g>
        </g>
        <path class="cls-4" d="M295.88,57.71v-.82c.21.07.4.09.61.09.59,0,1.08-.21,1.25-.28l-.49.89c-.35.09-.7.14-1.06.14-.09,0-.19-.02-.31-.02h0ZM295.88,55.5v-.66h.94c0-.16-.02-.49-.23-.73-.16-.16-.4-.26-.63-.26h-.07v-.7h.05c.31,0,.61.05.89.16,1.06.49,1.06,1.64,1.08,2.18h-2.02ZM295.88,53.15v.7c-.49.02-.82.42-.94.99h.94v.66h-.94c.02.28.05.75.42,1.08.14.16.33.26.52.31v.82c-1.36-.12-2.07-1.03-2.07-2.26,0-1.34.82-2.3,2.07-2.3h0ZM291.01,57.71v-.78h.19c.31,0,.59-.07.87-.21v-2.51c-.35-.23-.68-.26-.87-.26h-.19v-.8c.38,0,.73.09,1.06.28v-2.04h1.03v6.23h-1.03v-.73l-.52.73c-.12.05-.31.09-.54.09h0ZM291.01,53.15v.8c-.16.02-.35.09-.54.23-.4.31-.52.82-.52,1.34,0,.19.02.38.07.56.14.42.45.78.99.85v.78s-.07.02-.12.02c-1.46,0-2.04-1.1-2.04-2.23,0-1.25.8-2.35,2.11-2.35h.05ZM285.33,57.01v-3.15c.33.38.52.92.52,1.55s-.19,1.17-.52,1.6h0ZM285.33,53.86v3.15c-.38.45-.92.7-1.67.73v-.75h.02c.73,0,1.06-.75,1.06-1.57s-.31-1.53-1.06-1.53h-.02v-.73h.05c.68,0,1.25.26,1.62.7h0ZM283.66,53.15v.73h0c-.35.02-.63.16-.82.52-.19.31-.23.68-.23,1.06,0,.33.05.75.23,1.06.21.33.52.47.82.47v.75h0c-1.43,0-2.16-1.01-2.16-2.26s.82-2.3,2.16-2.33h0ZM280.72,54v-.82h.31c.19,0,.28.02.4.05v1.01c-.19-.09-.42-.21-.7-.23h0ZM280.72,53.18v.82h-.14c-.19,0-.54.05-.87.26v3.36h-1.06v-4.37h1.06v.78l.49-.7c.12-.05.31-.12.52-.14h0ZM270.97,57.62v-4.37h.99v.85l.56-.8c.33-.12.7-.14.87-.14,1.27,0,1.5.8,1.5,1.69v2.77h-1.03v-2.49c0-.66-.12-1.17-.92-1.17-.33,0-.68.12-.99.33v3.34h-.99ZM278.28,56.84c-.19.07-.4.12-.59.12-.28,0-.47-.12-.54-.23-.09-.16-.09-.33-.09-.82v-1.9h1.01v-.75h-.99v-1.13l-1.03.33v.8h-.09l-.47.75h.56l-.02,2.4c0,.38,0,.7.26.99.26.31.63.35.87.35s.4-.05.52-.07l.61-.82h0ZM270.97,53.25v4.37h-.05v-4.37h.05ZM268.3,57.71v-.82c.21.07.4.09.61.09.59,0,1.08-.21,1.25-.28l-.49.89c-.35.09-.7.14-1.06.14-.09,0-.21-.02-.31-.02h0ZM268.3,55.5v-.66h.94c0-.16-.02-.49-.23-.73-.16-.16-.4-.26-.66-.26h-.05v-.7h.05c.31,0,.61.05.89.16,1.06.49,1.06,1.64,1.06,2.18h-2ZM266.02,56.58c-.23.09-.96.33-1.76.33-1.67,0-2.61-1.06-2.61-2.44s.96-2.4,2.44-2.4c.82,0,1.39.35,1.62.52v-1.06c-.21-.09-.82-.31-1.74-.31-2.28,0-3.57,1.53-3.57,3.31s1.27,3.24,3.62,3.24c.31,0,.87-.02,1.41-.19l.59-1.01h0ZM268.3,53.15v.7c-.49.02-.82.42-.94.99h.94v.66h-.94c.02.28.05.75.42,1.08.14.16.33.26.52.31v.82c-1.36-.12-2.07-1.03-2.07-2.26,0-1.34.82-2.3,2.07-2.3h0ZM326.51,57.73v-.75h0c.73,0,1.06-.75,1.06-1.55s-.28-1.53-1.06-1.53h0v-.75h.02c1.27,0,2.14.89,2.14,2.26,0,1.29-.73,2.33-2.16,2.33h0ZM331.96,53.43c-.19-.09-.59-.28-1.15-.28-1.06,0-1.6.66-1.6,1.34,0,.78.63,1.03.92,1.13l.35.14c.26.09.61.23.61.63,0,.26-.21.59-.73.59-.35,0-.85-.21-1.15-.42v.87c.49.23.94.31,1.32.31,1.08,0,1.67-.66,1.67-1.36,0-.49-.26-.75-.4-.87-.14-.14-.31-.21-.54-.33l-.45-.16c-.23-.12-.54-.23-.54-.56,0-.23.16-.56.7-.56s.87.28.99.4v-.85ZM326.51,53.15v.75h0c-.35,0-.63.16-.85.49-.19.31-.23.68-.23,1.06,0,.35.05.75.26,1.06.19.33.49.47.82.47v.75h-.02c-.73,0-1.27-.26-1.64-.68v-3.15c.38-.45.94-.73,1.67-.75h0ZM324.85,53.9v3.15c-.33-.4-.52-.96-.52-1.57s.19-1.15.52-1.57h0ZM323.62,53.27h-1.03v4.35h1.03v-4.35h0ZM323.11,51.27c-.31,0-.56.21-.56.52s.26.54.56.54c.28,0,.54-.21.54-.54s-.26-.52-.54-.52ZM319.49,57.73v-.8c.07.02.14.02.21.02.28,0,.59-.09.85-.21v-2.54c-.33-.21-.66-.26-.85-.26-.05,0-.12,0-.21.02v-.82c.4.02.73.09,1.06.31v-2.07h1.06v6.23h-1.06v-.7l-.49.7c-.14.05-.31.09-.56.12ZM319.49,53.15v.82c-.14.02-.33.07-.52.23-.4.31-.52.8-.52,1.32,0,.19,0,.38.07.56.12.45.45.78.96.85v.8h-.09c-1.46,0-2.04-1.08-2.04-2.21,0-1.27.78-2.37,2.09-2.37h.05ZM312.16,57.03v-.14s.09-.02.14-.02l-.14.16h0ZM316.65,53.27h-1.03v3.31c-.28.21-.68.35-1.03.35-.78,0-.87-.52-.87-1.13v-2.54h-1.06v2.89c0,.38.02.85.45,1.2.4.35.87.38,1.08.38.19,0,.52-.02.87-.14l.56-.8v.82h1.03v-4.35h0ZM312.16,56.89v.14l-.47.63c-.12.02-.28.07-.52.07-.26,0-.61-.05-.87-.33-.26-.31-.26-.61-.26-1.01l.02-2.37h-.56l.45-.75h.12v-.82l1.03-.33v1.15h.99v.75h-1.01l-.02,1.9c0,.47,0,.66.12.8.07.12.23.26.54.26.14,0,.31-.05.45-.09h0ZM305.89,56.72h-2.89v-1.9h2.14v-.89h-2.14v-1.64h2.49v-.89h-3.67v6.23h3.57l.49-.89h0ZM308.96,53.43c-.16-.09-.56-.28-1.15-.28-1.03,0-1.57.66-1.57,1.34,0,.78.63,1.03.92,1.13l.33.14c.28.09.63.23.63.63,0,.26-.21.59-.73.59-.38,0-.87-.21-1.15-.42v.87c.47.23.92.31,1.32.31,1.08,0,1.64-.66,1.64-1.36,0-.49-.23-.75-.38-.87-.14-.14-.31-.21-.54-.33l-.45-.16c-.26-.12-.54-.23-.54-.56,0-.23.16-.56.7-.56s.85.28.96.4v-.85h0ZM375,57.72v-.75h0c.73,0,1.06-.73,1.06-1.55s-.31-1.53-1.06-1.53h0v-.75h.02c1.27,0,2.14.89,2.14,2.26,0,1.29-.75,2.33-2.16,2.33h0ZM380.45,53.42c-.19-.09-.59-.28-1.17-.28-1.03,0-1.57.68-1.57,1.36,0,.75.63,1.01.92,1.13l.35.12c.26.09.61.23.61.63,0,.26-.21.61-.73.61-.35,0-.85-.21-1.15-.45v.87c.47.23.94.31,1.32.31,1.08,0,1.64-.66,1.64-1.36,0-.47-.23-.75-.38-.87-.14-.14-.31-.21-.54-.31l-.45-.19c-.23-.12-.54-.23-.54-.56,0-.21.16-.56.7-.56s.85.28.99.4v-.85ZM375,53.14v.75h-.02c-.35,0-.63.16-.82.49s-.23.68-.23,1.06c0,.35.05.75.23,1.08.21.31.52.45.85.45v.75h-.02c-1.43,0-2.16-.99-2.16-2.23s.82-2.33,2.18-2.35h0ZM371.76,57.67v-.7c.31-.02.56-.12.92-.21l-.49.82c-.09.02-.23.07-.42.09h0ZM371.76,53.94v-.78c.23.05.47.09.75.21v.92c-.12-.09-.38-.26-.75-.35h0ZM371.76,53.16v.78c-.09,0-.19-.02-.31-.02-.85,0-1.39.66-1.39,1.53s.54,1.55,1.53,1.55c.07,0,.12-.02.16-.02v.7c-.14.02-.31.05-.49.05-1.25,0-2.3-.82-2.3-2.26,0-1.17.8-2.33,2.37-2.33.09,0,.26,0,.42.02h0ZM368.24,53.26h-1.03v4.37h1.03v-4.37h0ZM367.72,51.28c-.28,0-.54.21-.54.54,0,.31.26.49.54.49.31,0,.56-.19.56-.49,0-.33-.26-.54-.56-.54ZM361.21,53.99v-.73c.23-.07.45-.12.7-.12.61,0,1.22.26,1.41.94l.54-.78c.14-.05.45-.16.89-.16.21,0,.82.02,1.17.47.28.35.28.73.28,1.2v2.82h-1.03v-2.61c0-.61-.14-1.06-.85-1.06-.42,0-.8.21-.99.33.02.09.02.21.02.56v2.77h-1.03v-2.58c0-.61-.14-1.08-.85-1.08-.09,0-.19,0-.28.02h0ZM361.21,53.26v.73c-.28.05-.52.16-.68.26v3.38h-.99v-4.37h.99v.78l.49-.7c.07-.02.12-.05.19-.07ZM359.55,53.26v4.37h-.05v-4.37h.05ZM356.61,57.72v-.75h0c.73,0,1.08-.73,1.08-1.55s-.31-1.53-1.06-1.53h-.02v-.75h.05c1.25,0,2.11.89,2.11,2.26,0,1.29-.73,2.33-2.16,2.33h0ZM356.61,52.55v-.73l1.25-.47v.73l-1.25.47h0ZM356.61,51.82v.73l-.59.21v-.73l.59-.21h0ZM356.61,53.14v.75h0c-.35,0-.63.16-.82.49-.21.33-.26.68-.26,1.06,0,.35.05.75.26,1.08.19.31.52.45.82.45v.75h-.02c-1.41,0-2.16-.99-2.16-2.23s.82-2.33,2.18-2.35h0ZM346.86,57.72v-.75h0c.75,0,1.08-.73,1.08-1.55s-.31-1.53-1.06-1.53h-.02v-.75h.05c1.27,0,2.11.89,2.11,2.26,0,1.29-.73,2.33-2.16,2.33h0ZM349.75,57.63h1.03v-3.34c.31-.21.66-.33.99-.33.8,0,.92.52.92,1.17v2.49h1.03v-2.77c0-.92-.23-1.72-1.5-1.72-.16,0-.52.02-.87.14l-.56.8v-.82h-1.03v4.37ZM346.86,53.14v.75h0c-.35,0-.63.16-.82.49-.21.33-.23.68-.23,1.06,0,.35.02.75.23,1.08.21.31.52.45.82.45v.75h0c-1.43,0-2.16-.99-2.16-2.23s.8-2.33,2.16-2.35h0ZM344.18,57.35v-.49c.12-.02.23-.05.38-.09l-.38.59h0ZM344.18,54.17v-.87c.07.02.14.05.19.07v.92s-.09-.07-.19-.12h0ZM344.18,53.3v.87c-.19-.12-.47-.26-.87-.26-.85,0-1.36.66-1.36,1.53s.54,1.55,1.53,1.55c.23,0,.47-.05.7-.14v.49l-.12.23c-.19.05-.49.14-.94.14-1.25,0-2.3-.82-2.3-2.26,0-1.17.82-2.33,2.4-2.33.19,0,.56.02.96.16h0ZM340.59,56.73h-2.89v-1.93h2.14v-.87h-2.14v-1.64h2.49v-.89h-3.67v6.23h3.57l.49-.89Z"/>
      </g>
      <g>
        <path class="cls-1" d="M56.48,44.73h-5.16l14.41-33.24h4.23l14.27,33.24h-5.26l-3.38-8.17h-15.77l-3.33,8.17ZM61.46,32.47h12.44l-6.2-15.59-6.24,15.59Z"/>
        <path class="cls-1" d="M99.34,28.11c-.5-.81-1.21-1.48-2.11-1.99-.91-.52-1.93-.77-3.05-.77-.5,0-1,.06-1.5.16-.5.11-.95.28-1.34.52-.39.24-.7.53-.94.89-.23.36-.35.81-.35,1.34,0,.94.42,1.64,1.27,2.09.84.45,2.11.87,3.8,1.25,1.06.25,2.05.55,2.96.89.91.34,1.7.78,2.37,1.29.67.51,1.2,1.13,1.57,1.85.37.72.56,1.57.56,2.53,0,1.32-.25,2.43-.75,3.33-.5.91-1.17,1.65-2,2.23-.83.58-1.78.99-2.84,1.25-1.06.25-2.16.37-3.29.37-1.69,0-3.34-.33-4.95-.99-1.61-.66-2.95-1.66-4.01-3l3.15-2.68c.6.88,1.42,1.61,2.47,2.21,1.05.59,2.2.89,3.45.89.56,0,1.1-.05,1.62-.16.52-.11.99-.29,1.41-.54.42-.25.76-.58,1.01-.99.25-.41.38-.92.38-1.55,0-1.03-.49-1.8-1.48-2.3-.99-.5-2.43-.97-4.34-1.41-.75-.19-1.51-.41-2.28-.68-.77-.27-1.46-.63-2.09-1.1-.62-.47-1.13-1.06-1.53-1.76-.39-.71-.58-1.57-.58-2.61,0-1.19.24-2.21.73-3.07.49-.86,1.12-1.56,1.9-2.11.78-.55,1.67-.95,2.68-1.22,1-.26,2.03-.4,3.1-.4,1.6,0,3.14.31,4.62.94,1.49.62,2.64,1.53,3.45,2.72l-3.05,2.58Z"/>
        <path class="cls-1" d="M127.89,33.55c0,1.72-.31,3.3-.92,4.74-.61,1.44-1.46,2.68-2.53,3.73-1.08,1.05-2.36,1.86-3.83,2.44-1.47.58-3.05.87-4.74.87s-3.27-.29-4.74-.87c-1.47-.58-2.74-1.39-3.8-2.44-1.06-1.05-1.9-2.29-2.51-3.73-.61-1.44-.92-3.02-.92-4.74s.31-3.29.92-4.72c.61-1.42,1.45-2.65,2.51-3.68,1.06-1.03,2.33-1.84,3.8-2.42,1.47-.58,3.05-.87,4.74-.87s3.27.29,4.74.87c1.47.58,2.75,1.39,3.83,2.42,1.08,1.03,1.93,2.26,2.53,3.68.61,1.43.92,3,.92,4.72M123.29,33.57c0-1.06-.17-2.08-.49-3.04-.33-.97-.81-1.82-1.44-2.55-.63-.74-1.41-1.32-2.33-1.76-.93-.44-1.99-.66-3.18-.66s-2.25.22-3.18.66c-.93.44-1.7,1.02-2.33,1.76-.63.73-1.11,1.58-1.44,2.55-.33.97-.5,1.98-.5,3.04s.17,2.08.5,3.04c.33.96.81,1.82,1.44,2.57.63.75,1.4,1.34,2.33,1.78.93.44,1.99.66,3.18.66s2.25-.22,3.18-.66c.93-.44,1.7-1.03,2.33-1.78.63-.75,1.11-1.61,1.44-2.57.33-.97.49-1.98.49-3.04"/>
        <path class="cls-1" d="M146.76,28.11c-.47-.72-1.17-1.32-2.11-1.81-.94-.48-1.94-.73-3-.73-1.16,0-2.18.22-3.08.66-.89.44-1.65,1.03-2.28,1.76-.62.74-1.1,1.59-1.43,2.56-.33.97-.49,1.99-.49,3.05s.16,2.08.49,3.05c.33.97.81,1.82,1.43,2.56.63.74,1.39,1.32,2.3,1.76.91.44,1.94.66,3.1.66s2.15-.22,3.08-.66c.92-.44,1.68-1.03,2.28-1.79l2.96,2.68c-.94,1.1-2.11,1.95-3.52,2.56-1.41.61-3,.92-4.79.92s-3.31-.28-4.77-.85c-1.45-.56-2.72-1.35-3.78-2.37-1.06-1.02-1.9-2.25-2.51-3.69-.61-1.44-.91-3.05-.91-4.83s.3-3.35.89-4.79c.6-1.44,1.43-2.68,2.49-3.71,1.06-1.03,2.32-1.83,3.78-2.4,1.46-.56,3.03-.84,4.72-.84,1.56,0,3.12.31,4.67.94,1.55.62,2.78,1.53,3.68,2.72l-3.19,2.58Z"/>
        <path class="cls-1" d="M166.34,30.31c0-1.66-.5-2.89-1.5-3.69-1-.8-2.33-1.2-3.99-1.2-1.25,0-2.43.24-3.54.73-1.11.49-2.04,1.1-2.79,1.85l-2.35-2.82c1.09-1.03,2.43-1.85,4.01-2.44,1.58-.59,3.28-.89,5.09-.89,1.6,0,2.98.23,4.15.68,1.18.45,2.14,1.07,2.89,1.86.75.78,1.31,1.71,1.69,2.77.38,1.07.56,2.21.56,3.43v9.72c0,.75.02,1.54.07,2.37.05.83.13,1.51.26,2.04h-3.99c-.25-1.07-.38-2.13-.38-3.19h-.14c-.81,1.19-1.84,2.11-3.07,2.77-1.24.66-2.7.99-4.39.99-.88,0-1.79-.12-2.75-.35-.96-.24-1.82-.62-2.6-1.15-.78-.53-1.43-1.24-1.95-2.12-.52-.87-.78-1.95-.78-3.24,0-1.69.45-3.03,1.36-4.01.91-.98,2.1-1.74,3.57-2.25,1.47-.52,3.13-.85,4.98-1.01,1.85-.15,3.71-.23,5.59-.23v-.61ZM165.26,34.12c-1.1,0-2.23.05-3.4.14-1.17.09-2.24.28-3.19.56-.96.28-1.74.71-2.37,1.27-.63.56-.94,1.31-.94,2.25,0,.66.13,1.2.4,1.64.27.44.62.8,1.06,1.08.44.28.92.48,1.45.59.53.11,1.08.16,1.65.16,2.06,0,3.65-.62,4.76-1.85,1.11-1.24,1.67-2.79,1.67-4.67v-1.17h-1.08Z"/>
        <path class="cls-1" d="M169.39,47.07c.63.16,1.22.23,1.78.23.66,0,1.19-.13,1.6-.38.4-.25.72-.59.94-1.01.22-.42.37-.92.45-1.5.08-.58.12-1.2.12-1.86v-20.09h4.41v20.23c0,1.13-.1,2.19-.31,3.19-.2,1-.57,1.89-1.1,2.67-.53.78-1.27,1.4-2.21,1.86-.94.45-2.14.68-3.62.68-.41,0-.84-.03-1.31-.09-.47-.06-.88-.13-1.22-.19l.47-3.76ZM179.44,14.44c0,.82-.29,1.49-.87,2.02-.58.53-1.27.8-2.09.8s-1.51-.27-2.09-.82c-.58-.55-.87-1.21-.87-2s.29-1.49.87-2.04c.58-.55,1.28-.82,2.09-.82s1.51.27,2.09.82c.58.55.87,1.23.87,2.04"/>
        <path class="cls-1" d="M196.48,30.31c0-1.66-.5-2.89-1.5-3.69-1-.8-2.33-1.2-3.99-1.2-1.25,0-2.43.24-3.55.73-1.11.49-2.04,1.1-2.79,1.85l-2.35-2.82c1.1-1.03,2.43-1.85,4.02-2.44,1.58-.59,3.28-.89,5.09-.89,1.6,0,2.98.23,4.16.68,1.17.45,2.14,1.07,2.89,1.86.75.78,1.31,1.71,1.69,2.77.38,1.07.56,2.21.56,3.43v9.72c0,.75.02,1.54.07,2.37.05.83.13,1.51.26,2.04h-3.99c-.25-1.07-.37-2.13-.37-3.19h-.14c-.81,1.19-1.84,2.11-3.07,2.77-1.24.66-2.7.99-4.39.99-.88,0-1.79-.12-2.75-.35-.96-.24-1.82-.62-2.61-1.15-.78-.53-1.43-1.24-1.95-2.12-.52-.87-.77-1.95-.77-3.24,0-1.69.45-3.03,1.36-4.01.91-.98,2.1-1.74,3.57-2.25,1.47-.52,3.13-.85,4.98-1.01,1.85-.15,3.71-.23,5.59-.23v-.61ZM195.4,34.12c-1.1,0-2.23.05-3.4.14-1.17.09-2.24.28-3.19.56-.96.28-1.75.71-2.37,1.27-.63.56-.94,1.31-.94,2.25,0,.66.13,1.2.4,1.64.27.44.62.8,1.06,1.08.44.28.92.48,1.46.59.53.11,1.08.16,1.65.16,2.06,0,3.65-.62,4.77-1.85,1.11-1.24,1.66-2.79,1.66-4.67v-1.17h-1.08Z"/>
        <path class="cls-1" d="M217.28,28.11c-.5-.81-1.21-1.48-2.11-1.99-.91-.52-1.92-.77-3.05-.77-.5,0-1,.06-1.5.16-.5.11-.95.28-1.34.52-.39.24-.7.53-.94.89-.23.36-.35.81-.35,1.34,0,.94.42,1.64,1.27,2.09.84.45,2.11.87,3.8,1.25,1.06.25,2.05.55,2.96.89.91.34,1.7.78,2.37,1.29.67.51,1.2,1.13,1.57,1.85.38.72.56,1.57.56,2.53,0,1.32-.25,2.43-.75,3.33-.5.91-1.17,1.65-2,2.23-.83.58-1.78.99-2.84,1.25-1.06.25-2.16.37-3.29.37-1.69,0-3.34-.33-4.95-.99-1.61-.66-2.95-1.66-4.01-3l3.14-2.68c.6.88,1.42,1.61,2.46,2.21,1.05.59,2.2.89,3.45.89.56,0,1.1-.05,1.62-.16.52-.11.99-.29,1.41-.54.42-.25.76-.58,1.01-.99.25-.41.37-.92.37-1.55,0-1.03-.49-1.8-1.48-2.3-.99-.5-2.43-.97-4.34-1.41-.75-.19-1.51-.41-2.28-.68-.77-.27-1.47-.63-2.09-1.1-.63-.47-1.13-1.06-1.53-1.76-.39-.71-.58-1.57-.58-2.61,0-1.19.24-2.21.73-3.07.49-.86,1.12-1.56,1.9-2.11.78-.55,1.67-.95,2.68-1.22,1-.26,2.03-.4,3.1-.4,1.6,0,3.14.31,4.62.94,1.49.62,2.64,1.53,3.45,2.72l-3.05,2.58Z"/>
        <path class="cls-1" d="M36.72,25.8h-.01s0,0,0,0h-14.08l10.19-10.19s-8.13-8.14-9.95-9.95c-1.13-1.13-2.34-1.7-3.55-1.7s-2.46.58-3.62,1.75c-2.29,2.3-5.13,5.13-11.48,11.48-10.91,10.91,2.86,24.17,2.86,24.17h0s0,0,0,0c0,0,3.97,0,14.09,0l-10.19,10.19s8.14,8.14,9.95,9.95c2.28,2.28,4.86,2.27,7.18-.05,2.29-2.29,5.13-5.13,11.48-11.48,10.91-10.91-2.86-24.17-2.86-24.17Z"/>
      </g>
      <g>
        <path class="cls-3" d="M481.41,40.52c3.49,0,5.24-3.11,5.28-6.22.09-4.17-2.73-6.18-5.62-6.22-3.02-.04-6.13,2.09-6.13,6.13,0,3.11,2.13,6.3,6.47,6.3M491.59,44.95h-5.11v-1.19c-1.66,1.06-3.71,1.45-5.62,1.45-7.41,0-11.08-5.41-11.03-10.95.04-7.2,5.79-10.95,11.37-10.95,5.28,0,10.39,2.98,10.39,10.01v11.63Z"/>
        <path class="cls-3" d="M510.8,38.82c0,3.54-2.6,6.52-9.46,6.52-2.98,0-6.52-.6-8.39-1.62l2-4.47c1.45.72,4.77,1.41,6.39,1.41,3.19,0,4.34-.51,4.34-1.7,0-2.81-12.4-1.7-12.4-9.12,0-4.73,4.22-6.65,9.29-6.6,2.9.04,5.07.64,7.03,1.66l-2,4.43c-1.11-.72-3.41-1.41-6.09-1.41-1.41,0-3.11.43-3.11,1.41,0,2.94,12.4,1.92,12.4,9.5"/>
        <path class="cls-3" d="M523.37,40.56c8.22,0,8.22-12.69,0-12.69s-8.26,12.69,0,12.69M512.08,34.22c0-5.54,3.45-11.03,11.29-11.03s11.29,5.5,11.29,11.03-3.45,11.03-11.29,11.03-11.29-5.49-11.29-11.03"/>
        <path class="cls-3" d="M545.94,23.61v4.69h-4.47v16.91h-5.11v-21.08c0-6.52,3.79-11.16,11.29-11.16h2.3v4.69h-2.9c-3.75,0-5.54,2.98-5.54,5.96h4.43Z"/>
        <path class="cls-3" d="M558.12,40.56c8.22,0,8.22-12.69,0-12.69s-8.26,12.69,0,12.69M546.84,34.22c0-5.54,3.45-11.03,11.29-11.03s11.29,5.5,11.29,11.03-3.45,11.03-11.29,11.03-11.29-5.49-11.29-11.03"/>
        <path class="cls-3" d="M590.8,33.55v11.67h-5.11v-12.4c0-2.85-1.96-4.75-4.73-4.75s-4.73,1.9-4.73,4.75v12.4h-5.11v-11.67c0-6.4,3.58-10.24,9.84-10.24s9.84,3.85,9.84,10.24"/>
        <path class="cls-3" d="M609.15,35.2v-6.9h-5.96c-7.58,0-7.62,12.23.89,12.23,3.92,0,5.07-3.02,5.07-5.32M609.15,23.61v-10.65h5.11v31.99h-5.11v-1.19c-1.66,1.06-3.71,1.45-5.62,1.45-7.41,0-11.08-5.41-11.03-10.95.04-5.92,3.79-10.65,11.29-10.65h5.37Z"/>
        <path class="cls-3" d="M627.3,40.56c8.22,0,8.22-12.69,0-12.69s-8.26,12.69,0,12.69M616.01,34.22c0-5.54,3.45-11.03,11.29-11.03s11.29,5.5,11.29,11.03-3.45,11.03-11.29,11.03-11.29-5.49-11.29-11.03"/>
        <path class="cls-3" d="M657.8,38.82c0,3.54-2.6,6.52-9.46,6.52-2.98,0-6.52-.6-8.39-1.62l2-4.47c1.45.72,4.77,1.41,6.39,1.41,3.19,0,4.35-.51,4.35-1.7,0-2.81-12.4-1.7-12.4-9.12,0-4.73,4.22-6.65,9.29-6.6,2.9.04,5.07.64,7.03,1.66l-2,4.43c-1.11-.72-3.41-1.41-6.09-1.41-1.41,0-3.11.43-3.11,1.41,0,2.94,12.4,1.92,12.4,9.5"/>
        <path class="cls-3" d="M558.12,40.56c8.22,0,8.22-12.69,0-12.69s-8.26,12.69,0,12.69M546.84,34.22c0-5.54,3.45-11.03,11.29-11.03s11.29,5.5,11.29,11.03-3.45,11.03-11.29,11.03-11.29-5.49-11.29-11.03"/>
        <path class="cls-2" d="M450.78,23.14c0,.13-.15.19-.24.1l-2.79-2.79c-.09-.09-.03-.24.1-.24l3.48-.69c.08,0,.14.06.14.14l-.69,3.48ZM449.12,36.82h-3.54v-.83c-1.15.74-2.57,1-3.9,1-5.14,0-7.67-3.75-7.64-7.59.03-4.99,4.01-7.58,7.88-7.58,3.66,0,7.2,2.07,7.2,6.94v8.06ZM442.31,12.17c-9.12,0-16.52,7.39-16.52,16.52s7.4,16.52,16.52,16.52,16.52-7.4,16.52-16.52-7.4-16.52-16.52-16.52"/>
        <path class="cls-2" d="M441.83,25.13c-2.1-.03-4.25,1.45-4.25,4.25,0,2.15,1.48,4.37,4.49,4.37,2.42,0,3.63-2.15,3.66-4.31.06-2.89-1.89-4.28-3.9-4.31"/>
      </g>
    </g>
  </g>
</svg>